<?xml version="1.0" standalone="no"?>
<!DOCTYPE svg PUBLIC "-//W3C//DTD SVG 20010904//EN"
 "http://www.w3.org/TR/2001/REC-SVG-20010904/DTD/svg10.dtd">
<svg version="1.0" xmlns="http://www.w3.org/2000/svg"
 width="1024.000000pt" height="1024.000000pt" viewBox="0 0 1024.000000 1024.000000"
 preserveAspectRatio="xMidYMid meet">
<metadata>
Created by potrace 1.11, written by Peter Selinger 2001-2013
</metadata>
<g transform="translate(0.000000,1024.000000) scale(0.100000,-0.100000)"
fill="#000000" stroke="none">
<path d="M1251 8109 c-107 -20 -203 -75 -284 -162 -47 -50 -109 -161 -124
-222 -4 -16 -9 -1182 -10 -2590 -3 -2830 -8 -2611 60 -2740 34 -64 133 -171
182 -195 17 -8 32 -18 35 -21 3 -3 36 -16 74 -29 182 -60 379 -18 521 111 52
48 72 78 430 644 55 88 128 202 161 253 32 51 66 104 74 118 45 73 654 1035
680 1074 6 8 65 103 133 210 423 672 778 1230 781 1230 0 0 1 -726 1 -1613 l1
-1612 22 -70 c18 -61 70 -155 114 -205 26 -31 104 -88 154 -113 199 -100 446
-57 605 104 20 20 68 86 106 145 87 136 272 428 433 684 121 193 171 271 190
300 22 33 365 574 390 615 8 13 58 92 110 174 52 83 118 186 145 230 28 44
138 218 245 387 107 169 202 319 210 333 8 14 17 28 20 31 3 3 10 14 17 25 18
30 151 241 201 320 25 39 59 93 77 120 17 28 46 72 63 99 l32 49 3 -1624 c1
-893 6 -1637 10 -1654 17 -69 81 -178 135 -234 68 -69 129 -106 225 -136 l72
-23 860 -1 c544 0 882 4 920 10 156 27 312 150 377 297 37 82 47 141 44 236
-6 146 -58 261 -164 362 -59 56 -173 114 -255 129 -41 7 -246 11 -622 10
l-560 0 -1 2235 c0 1229 -4 2257 -8 2283 -27 183 -166 344 -356 413 -72 25
-205 27 -291 3 -172 -48 -247 -117 -402 -373 -7 -11 -16 -25 -20 -30 -5 -6
-155 -243 -334 -526 -179 -283 -411 -651 -517 -817 -105 -167 -198 -314 -206
-328 -8 -13 -37 -60 -65 -102 -27 -43 -143 -226 -258 -408 -115 -181 -235
-370 -266 -420 -32 -49 -96 -151 -143 -225 -47 -74 -126 -200 -177 -279 l-91
-144 -1 1599 c-1 879 -1 1602 -1 1605 3 22 -44 162 -69 205 -60 106 -169 195
-286 235 -53 18 -90 23 -163 23 -175 0 -309 -63 -409 -194 -40 -50 -562 -865
-578 -900 -4 -8 -14 -26 -24 -40 -9 -14 -38 -59 -64 -100 -26 -41 -64 -101
-84 -132 -66 -105 -159 -251 -365 -578 -113 -179 -209 -330 -213 -335 -4 -6
-17 -26 -27 -45 -11 -19 -24 -39 -28 -45 -5 -5 -69 -104 -141 -220 -73 -115
-144 -228 -159 -250 -119 -185 -308 -488 -308 -496 0 -5 -4 -9 -9 -9 -5 0 -11
-8 -15 -17 -3 -10 -28 -52 -55 -93 -28 -41 -68 -105 -91 -142 -22 -38 -42 -68
-44 -68 -1 0 -2 714 -2 1586 1 1137 -2 1606 -10 1654 -34 201 -201 374 -403
415 -72 15 -141 16 -210 4z"/>
</g>
</svg>
