<?xml version="1.0" standalone="no"?>
<!DOCTYPE svg PUBLIC "-//W3C//DTD SVG 20010904//EN"
 "http://www.w3.org/TR/2001/REC-SVG-20010904/DTD/svg10.dtd">
<svg version="1.0" xmlns="http://www.w3.org/2000/svg"
 width="1024.000000pt" height="1024.000000pt" viewBox="0 0 1024.000000 1024.000000"
 preserveAspectRatio="xMidYMid meet">
<metadata>
Created by potrace 1.11, written by Peter Selinger 2001-2013
</metadata>
<g transform="translate(0.000000,1024.000000) scale(0.100000,-0.100000)"
fill="#000000" stroke="none">
<path d="M1251 8109 c-198 -37 -375 -213 -411 -408 -7 -35 -10 -937 -10 -2590
0 -2799 -4 -2588 63 -2714 35 -67 112 -151 177 -194 143 -95 358 -105 519 -24
105 54 157 112 307 348 202 320 333 526 400 631 32 51 66 104 74 118 47 75
656 1038 680 1074 6 8 61 96 123 195 63 99 221 349 352 555 131 206 243 384
249 395 7 11 29 47 50 80 115 179 139 215 140 215 0 0 1 -726 1 -1613 l1
-1612 22 -70 c18 -61 70 -155 114 -205 26 -31 104 -88 154 -113 122 -61 271
-70 403 -24 129 45 208 114 302 263 101 158 332 524 448 709 110 174 161 254
181 285 28 42 89 139 320 505 139 220 271 429 294 465 23 36 51 79 62 97 10
18 60 95 109 173 50 77 95 148 100 158 6 9 25 40 42 67 145 230 203 322 210
331 4 5 13 19 20 30 24 39 138 221 181 289 25 39 59 93 77 120 17 28 46 72 63
99 l32 49 3 -1624 c1 -893 6 -1637 10 -1654 17 -69 81 -178 135 -234 68 -69
129 -106 225 -136 l72 -23 860 -1 c544 0 882 4 920 10 151 26 298 139 373 284
55 109 65 282 23 400 -61 171 -220 308 -394 340 -41 7 -246 11 -622 10 l-560
0 -1 2235 c0 1229 -4 2257 -8 2283 -27 184 -165 343 -358 413 -70 25 -203 27
-289 3 -172 -48 -247 -117 -402 -373 -7 -11 -16 -25 -20 -30 -5 -6 -155 -243
-334 -526 -179 -283 -411 -651 -517 -817 -105 -167 -198 -314 -206 -328 -8
-14 -69 -109 -134 -213 -66 -103 -182 -286 -259 -407 -77 -121 -165 -260 -196
-310 -32 -49 -96 -151 -143 -225 -47 -74 -126 -200 -177 -279 l-91 -144 -1
1599 c-1 879 -1 1602 -1 1605 3 22 -44 162 -69 205 -60 106 -169 195 -286 235
-53 18 -90 23 -163 23 -175 0 -309 -63 -409 -194 -40 -50 -562 -865 -578 -900
-4 -8 -14 -26 -24 -40 -9 -14 -38 -59 -64 -100 -26 -41 -64 -101 -84 -132 -66
-105 -159 -251 -365 -578 -113 -179 -209 -330 -213 -336 -4 -5 -13 -19 -19
-30 -17 -28 -290 -460 -329 -519 -18 -27 -103 -162 -190 -300 -86 -137 -172
-272 -189 -300 -47 -72 -99 -154 -125 -197 -12 -21 -24 -38 -25 -38 -1 0 -2
714 -2 1586 1 1137 -2 1606 -10 1654 -34 201 -201 374 -403 415 -72 15 -141
16 -210 4z"/>
</g>
</svg>
